<?xml version="1.0" standalone="no"?>
<!DOCTYPE svg PUBLIC "-//W3C//DTD SVG 20010904//EN"
 "http://www.w3.org/TR/2001/REC-SVG-20010904/DTD/svg10.dtd">
<svg version="1.0" xmlns="http://www.w3.org/2000/svg"
 width="500.000000pt" height="500.000000pt" viewBox="0 0 500.000000 500.000000"
 preserveAspectRatio="xMidYMid meet">

<g transform="translate(0.000000,500.000000) scale(0.100000,-0.100000)"
fill="#000000" stroke="none">
<path d="M2427 4500 c-22 -17 -27 -30 -27 -64 l0 -42 -107 -12 c-521 -62 -974
-306 -1305 -703 -65 -77 -173 -239 -216 -324 -101 -197 -185 -495 -201 -710
l-6 -90 -39 -6 c-48 -8 -76 -39 -76 -84 0 -40 27 -66 78 -74 l37 -6 7 -82 c26
-319 163 -702 330 -924 18 -24 47 -64 63 -89 52 -78 265 -283 370 -357 219
-155 435 -255 685 -318 89 -22 261 -51 340 -57 26 -2 36 -8 38 -23 8 -55 15
-67 46 -82 32 -15 36 -15 68 3 25 15 35 30 42 61 l9 40 81 7 c212 18 562 121
736 218 239 133 454 314 612 514 82 104 191 288 238 401 65 155 134 436 148
601 7 83 8 87 32 90 55 6 68 13 84 46 27 57 -7 111 -74 118 l-35 3 -7 91 c-12
155 -68 393 -130 554 -102 264 -301 535 -539 735 -116 97 -309 218 -454 283
-169 77 -450 153 -622 168 l-73 7 0 33 c0 71 -80 115 -133 74z m-27 -374 l0
-62 -98 -12 c-485 -61 -920 -346 -1173 -768 -75 -125 -135 -258 -167 -369 -27
-91 -52 -244 -52 -312 l0 -53 -76 0 -76 0 6 38 c3 20 8 64 11 97 8 75 41 230
67 314 157 507 586 941 1093 1104 77 25 176 52 220 61 88 18 226 34 238 29 4
-3 7 -32 7 -67z m390 37 c224 -45 487 -153 635 -262 28 -20 70 -49 95 -65 61
-40 289 -268 334 -336 20 -30 53 -80 73 -110 136 -204 234 -505 256 -787 l4
-53 -66 0 -67 0 -12 103 c-21 174 -90 400 -170 552 -116 220 -338 462 -552
600 -101 66 -283 150 -410 189 -112 35 -264 66 -321 66 l-29 0 0 70 0 71 53
-7 c28 -3 108 -17 177 -31z m-392 -890 l-3 -57 -65 -13 c-74 -15 -211 -77
-280 -128 l-46 -34 -18 30 c-10 17 -31 36 -48 43 l-29 13 61 44 c105 76 306
155 408 158 22 1 23 -2 20 -56z m331 22 c92 -31 220 -95 269 -135 l42 -33 -29
-18 c-17 -10 -35 -28 -42 -41 -6 -13 -13 -24 -14 -26 -1 -2 -39 22 -83 51 -85
57 -196 104 -269 114 l-43 6 0 59 0 60 52 -7 c28 -4 81 -17 117 -30z m-329
-287 l0 -53 -90 -44 c-105 -50 -166 -97 -220 -170 -39 -52 -90 -152 -90 -177
0 -10 -16 -14 -61 -14 l-61 0 7 38 c36 195 223 397 420 453 94 27 95 27 95
-33z m269 27 c119 -38 258 -148 334 -266 18 -28 53 -123 66 -181 l9 -38 -64 0
c-58 0 -64 2 -64 20 0 26 -48 121 -89 177 -42 58 -124 120 -220 168 l-81 40 0
53 c0 62 -1 62 109 27z m-829 -11 c0 -8 14 -28 31 -43 l30 -28 -50 -77 c-55
-84 -85 -156 -108 -258 l-15 -68 -54 0 c-53 0 -54 1 -54 28 0 79 59 246 123
347 66 105 97 137 97 99z m1333 -41 c79 -109 157 -307 157 -400 l0 -33 -55 0
c-53 0 -55 1 -55 28 0 73 -50 197 -122 304 l-46 67 37 40 c20 22 39 40 43 40
3 1 22 -20 41 -46z m-569 -222 c64 -28 121 -85 156 -153 81 -163 2 -365 -167
-428 -107 -40 -250 -17 -329 52 -137 120 -132 373 9 481 41 31 94 58 132 68
46 12 150 2 199 -20z m-1694 -420 c0 -72 36 -267 66 -357 179 -537 645 -954
1182 -1058 72 -14 150 -26 171 -26 67 0 71 -4 71 -82 l0 -70 -67 7 c-275 27
-596 141 -813 288 -183 123 -313 252 -448 441 -164 229 -279 545 -306 839 l-7
67 76 0 75 0 0 -49z m836 -16 c18 -91 50 -166 105 -250 27 -42 49 -79 49 -84
0 -4 -11 -13 -25 -19 -13 -6 -27 -23 -31 -37 -8 -34 -17 -32 -54 13 -70 85
-169 327 -170 415 0 28 1 28 57 25 l56 -3 13 -60z m283 -17 c49 -115 140 -210
254 -267 46 -23 90 -41 100 -41 14 0 17 -10 17 -60 0 -69 0 -69 -88 -41 -165
51 -299 166 -375 321 -25 52 -49 112 -53 133 l-6 37 58 0 59 0 34 -82z m1035
33 c-28 -97 -44 -131 -83 -189 -79 -116 -196 -204 -340 -253 -80 -28 -81 -27
-81 39 l0 57 59 23 c150 58 292 209 327 347 6 23 10 25 70 25 l63 0 -15 -49z
m263 -3 c-11 -106 -87 -288 -158 -376 -37 -48 -43 -52 -52 -35 -5 10 -22 30
-38 44 l-29 26 39 54 c67 94 131 248 131 315 0 22 4 24 56 24 l57 0 -6 -52z
m852 -36 c-15 -178 -89 -442 -170 -604 -142 -284 -393 -550 -674 -716 -101
-60 -325 -146 -467 -181 -99 -24 -257 -51 -300 -51 -5 0 -8 33 -8 74 l0 73 74
6 c41 4 126 18 189 31 317 67 654 275 866 535 101 125 129 167 186 280 93 185
155 392 171 569 l7 72 66 0 67 0 -7 -88z m-2006 -507 c29 -13 86 -31 127 -40
41 -10 81 -19 88 -21 8 -2 12 -24 12 -64 0 -33 -2 -60 -4 -60 -35 0 -183 38
-238 61 -73 31 -238 134 -238 148 0 4 11 13 24 19 14 6 32 22 41 36 l17 25 60
-40 c33 -23 83 -51 111 -64z m795 80 c7 -15 26 -32 43 -39 l31 -13 -32 -26
c-101 -86 -271 -160 -412 -180 l-38 -6 0 65 c0 60 1 64 23 64 71 0 269 82 338
139 31 26 34 26 47 -4z"/>
<path d="M2442 2640 c-166 -38 -191 -256 -37 -330 76 -37 152 -17 209 53 28
35 31 46 31 106 0 59 -4 72 -28 104 -44 57 -108 82 -175 67z"/>
</g>
</svg>
